HIERARCHY
ROOT ui
{
	 OFFSET 0 0 0
	 CHANNELS 3 XPosition YPosition Z Position
	 EndSite
	 {
	 OFFSET 0 -1 0
	 }
}
ROOT li
{
	 OFFSET 0 0 0
	 CHANNELS 3 XPosition YPosition Z Position
	 EndSite
	 {
	 OFFSET 0 -1 0
	 }
}
ROOT ul
{
	 OFFSET 0 0 0
	 CHANNELS 3 XPosition YPosition Z Position
	 EndSite
	 {
	 OFFSET 0 -1 0
	 }
}
ROOT ll
{
	 OFFSET 0 0 0
	 CHANNELS 3 XPosition YPosition Z Position
	 EndSite
	 {
	 OFFSET 0 -1 0
	 }
}
ROOT tt
{
	 OFFSET 0 0 0
	 CHANNELS 3 XPosition YPosition Z Position
	 EndSite
	 {
	 OFFSET 0 -1 0
	 }
}
ROOT tb
{
	 OFFSET 0 0 0
	 CHANNELS 3 XPosition YPosition Z Position
	 EndSite
	 {
	 OFFSET 0 -1 0
	 }
}
ROOT td
{
	 OFFSET 0 0 0
	 CHANNELS 3 XPosition YPosition Z Position
	 EndSite
	 {
	 OFFSET 0 -1 0
	 }
}
ROOT v
{
	 OFFSET 0 0 0
	 CHANNELS 3 XPosition YPosition Z Position
	 EndSite
	 {
	 OFFSET 0 -1 0
	 }
}
ROOT bn
{
	 OFFSET 0 0 0
	 CHANNELS 3 XPosition YPosition Z Position
	 EndSite
	 {
	 OFFSET 0 -1 0
	 }
}
MOTION
Frames: 13
Frame Time: 0.002
-0.0013655610084533692	2.072400003671646E-4	0		0.5149059448242187	-2.362013916015625	0		-0.9960594482421875	-0.02692405128479004	0		-0.7687753295898437	-2.2276328125	0		1.1202108154296875	-0.6651936645507812	0		2.6793515625	0.2233827667236328	0		4.420548828125	0.37537216186523437	0		5.6396611328125	0.10619194793701171	0		0.014649511337280274	6.0089853515625	0		
0.0033823161125183104	-0.0048449130058288575	0		0.5149390869140625	-2.361930908203125	0		-0.9962139892578125	-0.02696259880065918	0		-0.7687529907226562	-2.227653076171875	0		1.054176025390625	-0.6608156127929687	0		2.669197509765625	0.22482846069335938	0		4.41987255859375	0.40278317260742186	0		5.63464794921875	0.11477993774414062	0		-0.02009763526916504	6.00367138671875	0		
-0.009666860580444336	0.0014430880546569824	0		0.514955078125	-2.361847412109375	0		-0.996376708984375	-0.02699464225769043	0		-0.768747314453125	-2.227667724609375	0		1.0540618896484375	-0.6606907348632812	0		2.677277587890625	0.23892384338378905	0		4.4306748046875	0.40295852661132814	0		5.64447216796875	0.11506705474853515	0		-0.03962428283691406	6.0090703125	0		
0.0030466020107269287	-0.004753904819488525	0		0.5009182739257813	-2.363501220703125	0		-1.067458984375	-0.021689760208129884	0		-0.756873291015625	-2.233900634765625	0		1.0618800048828125	-0.663718017578125	0		2.657111083984375	0.24053753662109376	0		4.42385009765625	0.42345132446289063	0		5.6484228515625	0.12244326019287109	0		0.02798472595214844	6.01983740234375	0		
-0.002035768985748291	3.872950077056885E-4	0		0.519008544921875	-2.35775634765625	0		-0.9926475219726563	-0.023113662719726563	0		-0.7647124633789063	-2.223755126953125	0		1.0568604736328124	-0.657506103515625	0		2.681063232421875	0.2483142852783203	0		4.436904296875	0.43755081176757815	0		5.65308740234375	0.11477803802490234	0		0.027404600143432618	6.0198876953125	0		
-0.007140539169311524	0.004530484199523926	0		0.51693701171875	-2.359635986328125	0		-0.9928262329101563	-0.023123960494995117	0		-0.7766416015625	-2.217529052734375	0		1.1137110595703126	-0.6584511108398438	0		2.65600244140625	0.25599476623535156	0		4.42595947265625	0.4520777587890625	0		5.652900390625	0.1151776123046875	0		0.011651057243347168	6.00922119140625	0		
-0.0023963160514831544	4.915989935398102E-4	0		0.5148519287109375	-2.361515869140625	0		-0.997078857421875	-0.027050987243652343	0		-0.770921630859375	-2.229628173828125	0		1.1135675048828124	-0.6583351440429688	0		2.67073095703125	0.2519193878173828	0		4.4328828125	0.4592480773925781	0		5.65271337890625	0.1155477523803711	0		-0.023952600479125976	6.00492626953125	0		
-0.0025733659267425536	5.476629734039307E-4	0		0.49668490600585935	-2.367099609375	0		-1.0681683349609374	-0.021731040954589845	0		-0.7689505615234375	-2.227647705078125	0		1.119311279296875	-0.6643333740234375	0		2.630548095703125	0.25284945678710935	0		4.42092529296875	0.47274566650390626	0		5.64355078125	0.11705282592773437	0		-0.04137124252319336	6.00829541015625	0		
-0.0027423849105834962	6.057509779930115E-4	0		0.5276513671875	-2.365592529296875	0		-0.98929443359375	-0.02017908477783203	0		-0.7550796508789063	-2.23088134765625	0		1.061181396484375	-0.6631549682617187	0		2.68859814453125	0.26494970703125	0		4.42897412109375	0.4858477478027344	0		5.65650341796875	0.12411721801757812	0		-0.006717319965362549	6.01270458984375	0		
0.009136621475219726	0.0024436149597167967	0		0.47572314453125	-2.357555908203125	0		-0.989449462890625	-0.02015716552734375	0		-0.7551508178710937	-2.2308505859375	0		1.058217041015625	-0.65400146484375	0		2.634349365234375	0.2611072082519531	0		4.4320576171875	0.5000176086425782	0		5.6521962890625	0.11646639251708985	0		-0.02426424026489258	6.00407861328125	0		
0.022941089630126952	-7.534229755401611E-4	0		0.5166365966796875	-2.35923486328125	0		-0.9936412353515625	-0.023055540084838868	0		-0.7691585693359375	-2.227558349609375	0		1.050156982421875	-0.6507606811523438	0		2.653236572265625	0.2629027099609375	0		4.42803271484375	0.5072938537597657	0		5.6479267578125	0.10978468322753906	0		0.009507235527038574	6.0095107421875	0		
-0.003153465986251831	7.83352017402649E-4	0		0.487589599609375	-2.358629150390625	0		-0.9978307495117188	-0.026950229644775392	0		-0.7692141723632813	-2.22752099609375	0		1.11882568359375	-0.6639382934570313	0		2.658221435546875	0.268942138671875	0		4.4279013671875	0.5074753723144532	0		5.64297216796875	0.11909036254882813	0		-0.024881240844726562	6.0041953125	0		
0.001657323956489563	-0.004251201152801514	0		0.5145076293945312	-2.36105615234375	0		-1.0688414306640626	-0.02161564064025879	0		-0.7614427490234374	-2.2376279296875	0		1.0528109130859375	-0.6596450805664062	0		2.658155029296875	0.27106121826171875	0		4.4321591796875	0.5275599975585937	0		5.65183447265625	0.11711575317382812	0		-0.009920903205871582	6.01497412109375	0		
